<svg height="480pt" viewBox="0 0 480 480.00028" width="480pt" xmlns="http://www.w3.org/2000/svg"><path d="m472 96h-48.886719c16.300781-15.894531 21.34375-40.078125 12.753907-61.164062-8.589844-21.082032-29.101563-34.8593755-51.867188-34.835938h-66.335938c-21.230468-.0664062-40.65625 11.9375-50.089843 30.960938l-27.574219 55.152343-27.574219-55.152343c-9.433593-19.023438-28.859375-31.0273442-50.089843-30.960938h-66.335938c-22.765625-.0234375-43.277344 13.753906-51.867188 34.835938-8.589843 21.085937-3.546874 45.269531 12.753907 61.164062h-48.886719c-4.417969 0-8 3.582031-8 8v96c0 4.417969 3.582031 8 8 8h16v264c0 4.417969 3.582031 8 8 8h416c4.417969 0 8-3.582031 8-8v-264h16c4.417969 0 8-3.582031 8-8v-96c0-4.417969-3.582031-8-8-8zm-88-80c22.089844 0 40 17.910156 40 40s-17.910156 40-40 40h-24.886719c10.796875-10.507812 16.886719-24.933594 16.886719-40s-6.089844-29.492188-16.886719-40zm-102.113281 22.113281c6.738281-13.585937 20.613281-22.160156 35.777343-22.113281h2.335938c22.089844 0 40 17.910156 40 40s-17.910156 40-40 40h-67.054688zm-14.6875 153.886719h-54.398438l27.199219-66.800781zm-107.199219-176h2.335938c15.164062-.046875 29.039062 8.527344 35.777343 22.113281l28.941407 57.886719h-67.054688c-22.089844 0-40-17.910156-40-40s17.910156-40 40-40zm-104 40c.027344-22.082031 17.917969-39.972656 40-40h24.886719c-10.796875 10.507812-16.886719 24.933594-16.886719 40s6.089844 29.492188 16.886719 40h-24.886719c-22.082031-.027344-39.972656-17.917969-40-40zm-40 136v-80h116l-33.335938 80zm168 272h-144v-256h52l-35.382812 84.921875c-1.1875 2.839844-.636719 6.105469 1.410156 8.402344s5.230468 3.21875 8.1875 2.363281l50.890625-14.527344 28.671875 35.839844c1.773437 2.214844 4.585937 3.328125 7.394531 2.917969 2.808594-.40625 5.191406-2.273438 6.261719-4.902344l24.566406-60.359375zm-34.265625-159.640625-23.484375-29.359375c-1.519531-1.898438-3.820312-3-6.25-3-.742188 0-1.480469.105469-2.191406.3125l-40 11.433594 71.527344-171.746094h78.769531zm130.265625-80.359375v240h-80v-240h-.257812l6.523437-16h67.46875l6.523437 16zm-28.105469-112h78.769531l71.558594 171.746094-40-11.433594c-3.097656-.886719-6.421875.175781-8.4375 2.6875l-23.488281 29.359375zm188.105469 352h-144v-201.34375l24.59375 60.359375c1.066406 2.628906 3.449219 4.496094 6.257812 4.902344 2.808594.410156 5.625-.703125 7.398438-2.917969l28.671875-35.839844 50.886719 14.527344c2.957031.855469 6.140625-.066406 8.1875-2.363281s2.597656-5.5625 1.410156-8.402344l-35.40625-84.921875h52zm24-272h-82.664062l-33.335938-80h116zm0 0"/><path d="m112.296875 244.972656 28.210937-71.792968 14.894532 5.851562-28.214844 71.792969zm0 0"/><path d="m146.378906 157.121094 6.15625-16 14.933594 5.746094-6.15625 16zm0 0"/><path d="m56 376h16v72h-16zm0 0"/><path d="m56 344h16v16h-16zm0 0"/></svg>